<mxfile host="app.diagrams.net" modified="2023-05-25T23:47:02.342Z" agent="Mozilla/5.0 (Windows NT 10.0; Win64; x64; rv:109.0) Gecko/20100101 Firefox/113.0" etag="rjcnnHVFa5jHLGnYYvrX" version="21.2.3" type="device">
  <diagram name="Seite-1" id="MVqpGG4A7yf8vj3GV5t3">
    <mxGraphModel dx="2501" dy="774" grid="1" gridSize="10" guides="1" tooltips="1" connect="1" arrows="1" fold="1" page="1" pageScale="1" pageWidth="827" pageHeight="1169" math="0" shadow="0">
      <root>
        <mxCell id="0" />
        <mxCell id="1" parent="0" />
        <mxCell id="2yYgaS7Ej7zvnPBCmW-p-8" style="edgeStyle=orthogonalEdgeStyle;rounded=0;orthogonalLoop=1;jettySize=auto;html=1;exitX=0.5;exitY=1;exitDx=0;exitDy=0;entryX=0.5;entryY=0;entryDx=0;entryDy=0;" edge="1" parent="1" source="2yYgaS7Ej7zvnPBCmW-p-1" target="2yYgaS7Ej7zvnPBCmW-p-2">
          <mxGeometry relative="1" as="geometry" />
        </mxCell>
        <mxCell id="2yYgaS7Ej7zvnPBCmW-p-1" value="HazelNet" style="rounded=0;whiteSpace=wrap;html=1;" vertex="1" parent="1">
          <mxGeometry x="130" y="70" width="330" height="60" as="geometry" />
        </mxCell>
        <mxCell id="2yYgaS7Ej7zvnPBCmW-p-9" style="edgeStyle=orthogonalEdgeStyle;rounded=0;orthogonalLoop=1;jettySize=auto;html=1;exitX=0.5;exitY=1;exitDx=0;exitDy=0;entryX=0.5;entryY=0;entryDx=0;entryDy=0;" edge="1" parent="1" source="2yYgaS7Ej7zvnPBCmW-p-2" target="2yYgaS7Ej7zvnPBCmW-p-4">
          <mxGeometry relative="1" as="geometry" />
        </mxCell>
        <mxCell id="2yYgaS7Ej7zvnPBCmW-p-2" value="New Artificial Data generation (domain expertise + randomness)" style="rounded=0;whiteSpace=wrap;html=1;" vertex="1" parent="1">
          <mxGeometry x="130" y="160" width="330" height="60" as="geometry" />
        </mxCell>
        <mxCell id="2yYgaS7Ej7zvnPBCmW-p-12" style="edgeStyle=orthogonalEdgeStyle;rounded=0;orthogonalLoop=1;jettySize=auto;html=1;exitX=0.5;exitY=1;exitDx=0;exitDy=0;entryX=0.5;entryY=0;entryDx=0;entryDy=0;" edge="1" parent="1" source="2yYgaS7Ej7zvnPBCmW-p-3" target="2yYgaS7Ej7zvnPBCmW-p-6">
          <mxGeometry relative="1" as="geometry" />
        </mxCell>
        <mxCell id="2yYgaS7Ej7zvnPBCmW-p-3" value="Improving neural network setup" style="rounded=0;whiteSpace=wrap;html=1;" vertex="1" parent="1">
          <mxGeometry x="-90" y="350" width="330" height="60" as="geometry" />
        </mxCell>
        <mxCell id="2yYgaS7Ej7zvnPBCmW-p-10" style="edgeStyle=orthogonalEdgeStyle;rounded=0;orthogonalLoop=1;jettySize=auto;html=1;exitX=0.5;exitY=1;exitDx=0;exitDy=0;entryX=0.5;entryY=0;entryDx=0;entryDy=0;" edge="1" parent="1" source="2yYgaS7Ej7zvnPBCmW-p-4" target="2yYgaS7Ej7zvnPBCmW-p-3">
          <mxGeometry relative="1" as="geometry" />
        </mxCell>
        <mxCell id="2yYgaS7Ej7zvnPBCmW-p-11" style="edgeStyle=orthogonalEdgeStyle;rounded=0;orthogonalLoop=1;jettySize=auto;html=1;exitX=0.5;exitY=1;exitDx=0;exitDy=0;entryX=0.5;entryY=0;entryDx=0;entryDy=0;" edge="1" parent="1" source="2yYgaS7Ej7zvnPBCmW-p-4" target="2yYgaS7Ej7zvnPBCmW-p-5">
          <mxGeometry relative="1" as="geometry" />
        </mxCell>
        <mxCell id="2yYgaS7Ej7zvnPBCmW-p-4" value="Improving pre processing" style="rounded=0;whiteSpace=wrap;html=1;" vertex="1" parent="1">
          <mxGeometry x="130" y="250" width="330" height="60" as="geometry" />
        </mxCell>
        <mxCell id="2yYgaS7Ej7zvnPBCmW-p-13" style="edgeStyle=orthogonalEdgeStyle;rounded=0;orthogonalLoop=1;jettySize=auto;html=1;exitX=0.5;exitY=1;exitDx=0;exitDy=0;entryX=0.5;entryY=0;entryDx=0;entryDy=0;" edge="1" parent="1">
          <mxGeometry relative="1" as="geometry">
            <mxPoint x="475" y="400" as="sourcePoint" />
            <mxPoint x="295" y="605" as="targetPoint" />
            <Array as="points">
              <mxPoint x="475" y="560" />
              <mxPoint x="295" y="560" />
              <mxPoint x="295" y="625" />
            </Array>
          </mxGeometry>
        </mxCell>
        <mxCell id="2yYgaS7Ej7zvnPBCmW-p-5" value="Developing an algorithm" style="rounded=0;whiteSpace=wrap;html=1;" vertex="1" parent="1">
          <mxGeometry x="310" y="350" width="330" height="60" as="geometry" />
        </mxCell>
        <mxCell id="2yYgaS7Ej7zvnPBCmW-p-14" style="edgeStyle=orthogonalEdgeStyle;rounded=0;orthogonalLoop=1;jettySize=auto;html=1;exitX=0.5;exitY=1;exitDx=0;exitDy=0;" edge="1" parent="1" source="2yYgaS7Ej7zvnPBCmW-p-6" target="2yYgaS7Ej7zvnPBCmW-p-7">
          <mxGeometry relative="1" as="geometry" />
        </mxCell>
        <mxCell id="2yYgaS7Ej7zvnPBCmW-p-6" value="Model Explainability &amp;amp; Prediction analysis" style="rounded=0;whiteSpace=wrap;html=1;" vertex="1" parent="1">
          <mxGeometry x="-90" y="450" width="330" height="60" as="geometry" />
        </mxCell>
        <mxCell id="2yYgaS7Ej7zvnPBCmW-p-7" value="Developing a web application" style="rounded=0;whiteSpace=wrap;html=1;" vertex="1" parent="1">
          <mxGeometry x="130" y="610" width="330" height="60" as="geometry" />
        </mxCell>
      </root>
    </mxGraphModel>
  </diagram>
</mxfile>
